# xmcd CD database file
#
# Track frame offsets:
#	150
#	12305
#	30866
#	48728
#	67426
#	83127
#	100988
#	118191
#	139387
#	154197
#	165185
#	182655
#
# Disc length: 2729 seconds
#
# Revision: 0
# Processed by: cddbd v1.5.1PL2 Copyright (c) Steve Scherf et al.
# Submitted via: CDex 1.51
#
DISCID=a00aa70c
DTITLE=Carol Zammit - By Request
DYEAR=2000
DGENRE=Country
TTITLE0=Crazy
TTITLE1=How Do I Live
TTITLE2=Blue Bayou
TTITLE3=Simply The Best
TTITLE4=Dancing Queen
TTITLE5=Close To You
TTITLE6=Unchained Melody
TTITLE7=Think Twice
TTITLE8=I Love The Nite Life
TTITLE9=Leaving On Your Mind
TTITLE10=Wind Beneath My Wings
TTITLE11=My Heart Will Go On
EXTD=YEAR: 2000
EXTT0=
EXTT1=
EXTT2=
EXTT3=
EXTT4=
EXTT5=
EXTT6=
EXTT7=
EXTT8=
EXTT9=
EXTT10=
EXTT11=
PLAYORDER=
